<svg aria-hidden="true" style="width:0;height:0;position:absolute;overflow:hidden" xmlns="http://www.w3.org/2000/svg"><defs><symbol id="arrow" viewBox="0 0 19 32"><path d="M.937.937a3.2 3.2 0 0 1 4.526 0l12.8 12.8a3.199 3.199 0 0 1 0 4.525l-12.8 12.8a3.2 3.2 0 1 1-4.526-4.526l10.537-10.537L.937 5.462a3.2 3.2 0 0 1 0-4.526z"/></symbol><symbol id="facebook" viewBox="0 0 32 32"><path d="M16 32c8.837 0 16-7.163 16-16S24.837 0 16 0 0 7.163 0 16s7.163 16 16 16z"/><path fill="#fff" style="fill:#fff" d="M20.446 15.982h-2.61v9.619h-3.955v-9.619H12v-3.38h1.881v-2.187c0-1.564.739-4.014 3.99-4.014l2.929.012v3.281h-2.125c-.349 0-.839.175-.839.921v1.989h2.955l-.346 3.377z"/></symbol><symbol id="github" viewBox="0 0 32 32"><path d="M32 16c0 8.837-7.163 16-16 16S0 24.837 0 16 7.163 0 16 0s16 7.163 16 16z"/><path fill="#fff" style="fill:#fff" d="M16 6.588c-5.169 0-9.412 4.242-9.412 9.412 0 4.411 3.095 8.419 7.206 9.412v-3.114a2.307 2.307 0 0 1-1.197-.03c-.556-.164-1.008-.535-1.344-1.1-.214-.361-.593-.752-.988-.723l-.097-1.099c.855-.073 1.595.521 2.034 1.259.195.328.419.52.708.605.278.082.578.043.926-.08.088-.698.407-.959.648-1.326v-.001c-2.451-.366-3.428-1.666-3.816-2.693-.514-1.363-.238-3.066.671-4.142.018-.021.05-.076.037-.114-.417-1.258.091-2.299.11-2.41.481.142.559-.143 2.089.786l.264.159c.111.066.076.028.186.02A8.031 8.031 0 0 1 16 11.131a8.016 8.016 0 0 1 2.002.285l.086.009c-.007-.001.023-.005.075-.036 1.911-1.157 1.842-.779 2.355-.946.019.111.519 1.169.107 2.411-.056.171 1.657 1.739.708 4.256-.388 1.027-1.365 2.328-3.816 2.693v.001c.314.479.692.734.69 1.722v3.887c4.111-.993 7.206-5 7.206-9.412 0-5.169-4.242-9.412-9.412-9.412z"/></symbol><symbol id="home" viewBox="0 0 32 32"><path d="M31.599 16.766c.58-.595.524-1.507-.125-2.037L17.173 3.056c-.649-.53-1.69-.518-2.325.025L.498 15.351c-.635.543-.667 1.454-.069 2.034l.36.35c.597.579 1.562.648 2.154.154l1.072-.896v13.116c0 .805.699 1.456 1.561 1.456h5.594c.862 0 1.561-.651 1.561-1.456v-9.176h7.135v9.176c-.012.804.604 1.455 1.466 1.455h5.928c.862 0 1.561-.651 1.561-1.456v-12.93l.662.542c.366.3 1.131.059 1.711-.536l.407-.417z"/></symbol><symbol id="logo" viewBox="0 0 127 32"><path fill="#fff" style="fill:var(--color3,#fff)" d="M31.36 16.32C31.36 24.98 24.483 32 16 32S.64 24.98.64 16.32 7.517.64 16 .64s15.36 7.02 15.36 15.68z"/><path fill="#d41443" style="fill:var(--color1,#d41443)" d="M11.849.562C4.443 2.805 0 8.635 0 16.004c0 6.023 3.091 11.277 8.179 13.904 2.64 1.346 3.027.384.58-1.474-1.739-1.41-2.061-2.05-2.061-4.421 0-1.666-.386-3.011-.966-3.524-1.159-.961-1.288-3.46-.129-4.357.451-.384.902-1.666.966-2.819.322-4.229 4.894-8.201 9.467-8.201s9.145 3.973 9.466 8.201c.064 1.153.515 2.435.966 2.819 1.159.897 1.03 3.396-.129 4.357-.58.513-.966 1.858-.966 3.524 0 2.371-.322 3.011-2.061 4.421-2.705 2.114-1.932 2.883 1.095 1.025 4.25-2.627 7.406-8.33 7.406-13.391C31.813 5.944 21.252-2.257 11.85.562z"/><path fill="#d41443" style="fill:var(--color1,#d41443)" d="M12.686 7.994c-1.159.513-2.125 1.153-2.125 1.538 0 .705 3.477 1.986 5.474 1.986s5.474-1.281 5.474-1.986c0-.769-3.993-2.499-5.603-2.499-.644.064-2.125.449-3.22.961zm33.165 3.332c-.966.256-1.159 1.089-1.159 5.703v5.382h4.572l-.193-5.574c-.193-5.831-.451-6.279-3.22-5.51zm7.535.32c-2.125 1.153-2.898 2.563-2.898 5.318 0 3.78 2.061 5.574 5.86 5.318 2.576-.192 2.833-.384 3.027-1.986s.064-1.73-1.932-1.602c-2.061.192-2.125.064-2.125-2.05s.129-2.243 1.996-2.05c1.546.128 2.125-.128 2.383-1.089.129-.641 0-1.538-.386-1.922-.902-.897-4.25-.897-5.925.064zm7.663.064c-.193.513-.258 3.011-.129 5.638l.193 4.741h4.186c3.864 0 4.186-.128 4.379-1.474.193-1.217-.064-1.41-2.06-1.41-1.288 0-2.319-.32-2.319-.641 0-.384.902-.641 1.932-.641 1.481 0 1.932-.256 1.932-1.281s-.451-1.281-1.932-1.281c-1.03 0-1.932-.32-1.932-.641 0-.384.837-.641 1.868-.641 1.804 0 3.027-1.41 2.254-2.627-.58-.961-7.985-.705-8.372.256zm12.944-.192c-2.125.833-2.962 2.307-3.027 4.998-.065 4.613 1.803 6.215 6.633 5.767 1.868-.128 2.189-.448 2.189-1.794 0-1.41-.257-1.602-2.061-1.41-1.546.128-2.125-.064-2.447-1.089-.58-1.986.644-3.588 2.705-3.588 1.224 0 1.868-.384 1.996-1.217.451-2.05-2.833-3.011-5.989-1.666zm7.921-.256c-.323.256-.515 2.883-.515 5.831v5.382l2.06-.192c1.61-.128 2.19-.577 2.512-1.794l.386-1.602.515 1.73c.387 1.474.837 1.794 2.512 1.794 2.769 0 3.091-.448 1.932-2.691-.708-1.41-.837-2.114-.322-2.627.837-.833.902-3.652.129-4.87-.644-1.025-8.371-1.858-9.208-.961zm5.28 3.46c0 .705-.257 1.281-.644 1.281-.322 0-.644-.577-.644-1.281s.322-1.281.644-1.281c.387 0 .644.577.644 1.281zm6.247-3.396c-.258.192-.451 2.819-.451 5.767v5.318h4.186c4.057 0 4.186-.064 4.186-1.602 0-1.346-.322-1.602-1.932-1.602-1.03 0-1.932-.32-1.932-.641 0-.384.708-.641 1.61-.641 1.159 0 1.61-.32 1.61-1.281s-.451-1.281-1.61-1.281c-.902 0-1.61-.32-1.61-.641 0-.384.902-.641 1.932-.641 1.61 0 1.932-.256 1.932-1.602 0-1.538-.193-1.602-3.735-1.602-2.061 0-3.992.192-4.186.448zm13.009-.064c-1.16.32-4.122 8.842-3.542 10.252.515 1.281 3.413 1.153 4.186-.192.579-1.089.644-1.089 1.803 0 1.482 1.281 4.701 1.474 4.701.256 0-.384-.644-2.947-1.482-5.574-1.288-4.229-1.674-4.806-3.027-4.934-.902 0-2.061.064-2.64.192zm1.803 5.831c-.193.641-.322.256-.322-.769 0-1.089.129-1.538.322-1.153.129.448.129 1.346 0 1.922zm7.47-5.767c-.58.192-.837 1.986-.837 5.703v5.382h1.868c1.61 0 1.932-.32 2.189-1.794.257-1.666.257-1.666.772-.32.258.833.902 1.474 1.352 1.474.515 0 1.224-.641 1.546-1.474.515-1.346.58-1.346.58.384.065 1.602.257 1.794 2.061 1.602l1.996-.192.065-5.318c.129-4.934.064-5.318-1.288-5.638-2.061-.513-3.799.705-4.379 3.076l-.451 2.114-.708-2.243c-.902-3.011-2.254-3.78-4.765-2.755zm-106.707.641c-.193.256-.386 1.089-.386 1.922 0 1.474.064 1.474 7.406 1.474s7.406 0 7.406-1.474c0-2.178-.58-2.435-2.64-1.41-2.318 1.217-7.213 1.217-9.531 0-1.03-.513-1.996-.705-2.254-.513zm-1.868 5.702c-1.03 1.089.708 1.538 5.731 1.538h5.409v2.243c0 1.217.322 2.243.644 2.243.386 0 .644-.961.644-2.178 0-2.114.129-2.243 2.576-2.435 1.417-.128 2.576-.513 2.576-.833 0-.705-16.872-1.281-17.581-.577z"/><path fill="#d41443" style="fill:var(--color1,#d41443)" d="M8.629 23.308c0 3.524 1.224 4.229 7.406 4.229s7.406-.705 7.406-4.229c0-1.538-.322-2.178-.966-2.178-.58 0-.966.577-.966 1.538 0 3.588-4.894 3.908-5.603.384-.322-1.858-.515-1.922-3.8-1.922H8.629v2.178zm3.993 7.24c.386 2.05 6.955 1.858 6.955-.128 0-.705-.837-.961-3.606-.961-3.027 0-3.542.192-3.349 1.089z"/></symbol><symbol id="telegram" viewBox="0 0 32 32"><path d="M32 16c0 8.837-7.163 16-16 16S0 24.837 0 16 7.163 0 16 0s16 7.163 16 16z"/><path fill="#fff" style="fill:#fff" d="m12.867 18.375-.318 4.169c.454 0 .651-.182.887-.401l2.13-1.9 4.415 3.017c.81.421 1.38.199 1.598-.695l2.898-12.673c.257-1.117-.433-1.554-1.222-1.28L6.223 14.698c-1.162.421-1.145 1.026-.198 1.3l4.354 1.264 10.115-5.907c.476-.294.909-.131.553.163l-8.182 6.857z"/></symbol><symbol id="burger" viewBox="0 0 46 32"><path d="M45.714 3.429H0V1.143h45.714v2.286zm0 13.714H0v-2.286h45.714v2.286zm0 13.714H0v-2.286h45.714v2.286z"/></symbol><symbol id="close" viewBox="0 0 32 32"><path d="m28.761 30.693-26.963-28 1.441-1.387 26.963 28-1.441 1.387z"/><path d="m30.694 3.239-28 26.963-1.387-1.441 28-26.963 1.387 1.441z"/></symbol><symbol id="arrow-link" viewBox="0 0 24 24"><path d="M10.586 6.586a2 2 0 0 0 0 2.828L12.172 11H4.928a2 2 0 0 0 0 4h7.244l-1.586 1.586a2 2 0 1 0 2.828 2.828L19.828 13l-6.414-6.414a2 2 0 0 0-2.828 0z"/></symbol><symbol id="icecream" viewBox="0 0 32 32"><path d="M15.266.58c-.239.249-.239.28-.104.976.156.81.093 1.298-.26 1.973-.384.758-.613.914-1.485.966-.976.073-1.599.426-2.056 1.204-.478.789-.54 1.599-.208 2.409.052.114-.031.197-.28.291-.53.187-1.194.81-1.506 1.412-.374.706-.395 1.963-.052 2.606l.218.426-.467.249a2.94 2.94 0 0 0-1.34 1.578c-.218.654-.156 1.745.114 2.316.291.602 1.018 1.267 1.63 1.475.332.124.561.28.654.446.073.145 1.267 2.97 2.648 6.283s2.617 6.127 2.731 6.251c.114.135.332.239.488.239s.374-.104.488-.239c.114-.125 1.35-2.939 2.731-6.251s2.575-6.148 2.658-6.293c.083-.166.28-.312.54-.384 1.111-.332 1.994-1.558 1.994-2.772 0-1.184-.54-2.149-1.485-2.648l-.457-.249.218-.467c.332-.727.301-1.869-.062-2.565s-1.028-1.267-1.817-1.547c-.01-.011.052-.239.135-.519.395-1.298-.446-2.825-1.745-3.167-.364-.104-.395-.145-.395-.478 0-.457-.343-1.495-.665-1.994-.54-.852-1.776-1.786-2.357-1.786-.145 0-.373.115-.508.26zm1.922 3.011c.125.384.156.685.114 1.153-.052.54-.031.675.145.893.166.218.312.27.841.312.561.042.685.083.935.374.613.685.291 1.589-.633 1.796-.602.135-.831.353-.831.779 0 .239.073.395.27.55.239.187.426.218 1.329.218 1.267 0 1.62.166 1.942.893.228.509.197.903-.093 1.412-.197.332-.831.706-1.225.706-.644 0-1.007.8-.561 1.246.177.177.343.208 1.225.208.852 0 1.09.042 1.475.228 1.069.55 1.101 1.848.073 2.617-.291.218-.374.218-6.179.218-5.524 0-5.908-.01-6.199-.187-.467-.291-.706-.675-.748-1.204-.062-.654.218-1.132.8-1.444.446-.218.54-.228 3.801-.228h3.354l.208-.27c.28-.364.27-.613-.042-.924l-.249-.26h-2.606c-3.032 0-3.229-.052-3.624-.862-.27-.55-.27-.727-.011-1.288.312-.696.685-.862 1.932-.862.903 0 1.09-.031 1.329-.218a.627.627 0 0 0 .27-.55c0-.426-.228-.644-.831-.779-.623-.135-.935-.499-.935-1.09 0-.353.062-.499.312-.737.28-.27.405-.301 1.194-.353.862-.062.883-.062 1.36-.53.716-.706 1.121-1.423 1.34-2.43.062-.28.073-.291.197-.104.083.103.218.425.322.716zm3.063 15.202c0 .052-.073.26-.156.467l-.156.374h-5.908l-.208.27c-.27.353-.27.561 0 .903l.208.28 2.627.021 2.637.031-1.62 3.863c-.893 2.129-1.651 3.873-1.682 3.873-.062 0-4.258-9.958-4.258-10.104 0-.042 1.921-.073 4.258-.073 2.378 0 4.258.042 4.258.093z"/></symbol><symbol id="milkshake" viewBox="0 0 32 32"><path d="M20.949.418c-.196.104-.172.006-.692 2.383-.22 1.011-.423 1.886-.447 1.942-.037.092-.086.086-.472-.08-2.456-1.06-5.378-.858-7.717.527-2.107 1.25-3.577 3.35-3.902 5.568l-.074.527h-.594c-.551 0-.612.012-.784.159l-.19.159v1.25c0 1.25 0 1.256.153 1.403.141.141.19.153.796.153.46 0 .655.025.674.074.037.092 2.542 16.623 2.542 16.752 0 .049.08.172.178.269l.178.178h11.349l.147-.153a.735.735 0 0 0 .159-.196c0-.024.46-3.84 1.023-8.471l1.023-8.422.698-.031c.968-.043.925.031.925-1.562v-1.244l-.19-.159c-.172-.147-.233-.159-.79-.159h-.6l-.037-.355c-.123-1.035-.582-2.223-1.237-3.216-.453-.674-1.354-1.623-1.942-2.034-.19-.135-.349-.282-.349-.324 0-.037.22-1.066.49-2.278s.49-2.248.49-2.303c0-.147-.343-.453-.502-.453a.812.812 0 0 0-.305.098zm-3.718 4.716a7.496 7.496 0 0 1 4.098 2.107c1.035 1.029 1.752 2.407 1.929 3.718l.043.324H10.8l.031-.202c.074-.398.331-1.041.582-1.47.343-.576 1.121-1.341 1.746-1.709.772-.46 1.886-.784 2.707-.784.263 0 .355-.031.472-.153.233-.227.227-.539-.006-.753-.19-.165-.661-.184-1.439-.043-2.303.404-4.269 2.04-4.894 4.073a8.204 8.204 0 0 0-.214.809l-.037.233H8.701l.043-.324c.337-2.468 2.383-4.765 4.986-5.58a7.81 7.81 0 0 1 3.504-.245zm7.65 7.712v.521H7.118v-1.041h17.763v.521zm-1.653 1.69c0 .123-1.899 15.821-1.929 15.962l-.031.141H11.229l-.037-.196c-.018-.11-.557-3.663-1.194-7.889s-1.176-7.778-1.195-7.889l-.037-.196H16c5.359 0 7.228.019 7.228.068z"/></symbol><symbol id="icecoffee" viewBox="0 0 32 32"><path d="M23.423 7.257v-2.26l-.052-.105c-.112-.224-1.237-2.142-6.875-2.248V.991h8.741V0H16.33c-.536 0-.826.425-.826.826v1.818c-5.638.107-6.763 2.024-6.875 2.248l-.052.105v2.26H6.598v3.63h1.679l1.32 21.112h12.807l1.319-21.112h1.679v-3.63h-1.979zm-6.927-3.622c4.361.087 5.666 1.308 5.936 1.634v1.988h-5.936V3.635zM9.568 5.266c.105-.127.383-.408.963-.698.806-.403 2.314-.879 4.973-.932v3.622H9.568V5.267zm-1.979 4.63V8.248h7.915v1.648H7.589zm1.681.992h6.234v5.46a2.134 2.134 0 0 0-.896-.184c-.892 0-1.356.442-1.728.798-.317.303-.546.521-1.036.521-.495 0-.725-.219-1.044-.521-.29-.275-.637-.604-1.199-.735l-.331-5.34zm12.202 20.121H10.528l-.859-13.697c.155.092.291.22.448.369.373.354.836.794 1.726.794.887 0 1.349-.441 1.721-.796.319-.304.549-.524 1.044-.524s.725.219 1.044.523c.373.355.836.797 1.727.797.895 0 1.36-.442 1.734-.797.319-.303.55-.522 1.044-.522.493 0 .724.219 1.043.523.264.251.579.549 1.061.699l-.788 12.632zm.854-13.681a2.683 2.683 0 0 1-.444-.368c-.373-.355-.837-.796-1.726-.796s-1.354.441-1.727.795c-.321.305-.552.525-1.051.525-.408 0-.637-.15-.883-.373v-6.223h6.234l-.403 6.44zm2.085-7.432h-7.915V8.248h7.915v1.648z"/><path d="m15.941 19.652-3.822 1.406 1.399 3.822 3.829-1.399-1.406-3.829zm-2.551 1.995 1.962-.722.722 1.966-1.966.718-.718-1.962zm2.998 3.033-1.652 3.575 3.569 1.652 1.652-3.569-3.569-1.659zm1.433 3.911-1.77-.82.82-1.774 1.77.823-.82 1.771zm.488-9.128h1.32v.991h-1.32zm1.319 1.979h1.32v.991h-1.32zm-8.576 4.619h1.319v.991h-1.319zm1.32 1.979h1.319v.991h-1.319z"/></symbol></defs></svg>