<svg aria-hidden="true" style="position:absolute;width:0;height:0;overflow:hidden" xmlns="http://www.w3.org/2000/svg">
    <defs>
        <symbol id="arrow" viewBox="0 0 19 32"><path d="M.937.937a3.2 3.2 0 0 1 4.526 0l12.8 12.8a3.199 3.199 0 0 1 0 4.525l-12.8 12.8a3.2 3.2 0 1 1-4.526-4.526l10.537-10.537L.937 5.462a3.2 3.2 0 0 1 0-4.526z"/></symbol>
        <symbol id="facebook" viewBox="0 0 32 32"><path d="M16 32c8.837 0 16-7.163 16-16S24.837 0 16 0 0 7.163 0 16s7.163 16 16 16z"/><path fill="#fff" style="fill:#fff" d="M20.446 15.982h-2.61v9.619h-3.955v-9.619H12v-3.38h1.881v-2.187c0-1.564.739-4.014 3.99-4.014l2.929.012v3.281h-2.125c-.349 0-.839.175-.839.921v1.989h2.955l-.346 3.377z"/></symbol>
        <symbol id="github" viewBox="0 0 32 32"><path d="M32 16c0 8.837-7.163 16-16 16S0 24.837 0 16 7.163 0 16 0s16 7.163 16 16z"/><path fill="#fff" style="fill:#fff" d="M16 6.588c-5.169 0-9.412 4.242-9.412 9.412 0 4.411 3.095 8.419 7.206 9.412v-3.114a2.307 2.307 0 0 1-1.197-.03c-.556-.164-1.008-.535-1.344-1.1-.214-.361-.593-.752-.988-.723l-.097-1.099c.855-.073 1.595.521 2.034 1.259.195.328.419.52.708.605.278.082.578.043.926-.08.088-.698.407-.959.648-1.326v-.001c-2.451-.366-3.428-1.666-3.816-2.693-.514-1.363-.238-3.066.671-4.142.018-.021.05-.076.037-.114-.417-1.258.091-2.299.11-2.41.481.142.559-.143 2.089.786l.264.159c.111.066.076.028.186.02A8.031 8.031 0 0 1 16 11.131a8.016 8.016 0 0 1 2.002.285l.086.009c-.007-.001.023-.005.075-.036 1.911-1.157 1.842-.779 2.355-.946.019.111.519 1.169.107 2.411-.056.171 1.657 1.739.708 4.256-.388 1.027-1.365 2.328-3.816 2.693v.001c.314.479.692.734.69 1.722v3.887c4.111-.993 7.206-5 7.206-9.412 0-5.169-4.242-9.412-9.412-9.412z"/></symbol>
        <symbol id="home" viewBox="0 0 32 32"><path d="M31.599 16.766c.58-.595.524-1.507-.125-2.037L17.173 3.056c-.649-.53-1.69-.518-2.325.025L.498 15.351c-.635.543-.667 1.454-.069 2.034l.36.35c.597.579 1.562.648 2.154.154l1.072-.896v13.116c0 .805.699 1.456 1.561 1.456h5.594c.862 0 1.561-.651 1.561-1.456v-9.176h7.135v9.176c-.012.804.604 1.455 1.466 1.455h5.928c.862 0 1.561-.651 1.561-1.456v-12.93l.662.542c.366.3 1.131.059 1.711-.536l.407-.417z"/></symbol>
        <symbol id="logo" viewBox="0 0 127 32"><path fill="#fff" style="fill:var(--color3, #fff)" d="M31.36 16.32C31.36 24.98 24.483 32 16 32S.64 24.98.64 16.32 7.517.64 16 .64s15.36 7.02 15.36 15.68z"/><path fill="#d41443" style="fill:var(--color1, #d41443)" d="M11.849.562C4.443 2.805 0 8.635 0 16.004c0 6.023 3.091 11.277 8.179 13.904 2.64 1.346 3.027.384.58-1.474-1.739-1.41-2.061-2.05-2.061-4.421 0-1.666-.386-3.011-.966-3.524-1.159-.961-1.288-3.46-.129-4.357.451-.384.902-1.666.966-2.819.322-4.229 4.894-8.201 9.467-8.201s9.145 3.973 9.466 8.201c.064 1.153.515 2.435.966 2.819 1.159.897 1.03 3.396-.129 4.357-.58.513-.966 1.858-.966 3.524 0 2.371-.322 3.011-2.061 4.421-2.705 2.114-1.932 2.883 1.095 1.025 4.25-2.627 7.406-8.33 7.406-13.391C31.813 5.944 21.252-2.257 11.85.562z"/><path fill="#d41443" style="fill:var(--color1, #d41443)" d="M12.686 7.994c-1.159.513-2.125 1.153-2.125 1.538 0 .705 3.477 1.986 5.474 1.986s5.474-1.281 5.474-1.986c0-.769-3.993-2.499-5.603-2.499-.644.064-2.125.449-3.22.961zM45.851 11.326c-.966.256-1.159 1.089-1.159 5.703v5.382h4.572l-.193-5.574c-.193-5.831-.451-6.279-3.22-5.51zM53.386 11.646c-2.125 1.153-2.898 2.563-2.898 5.318 0 3.78 2.061 5.574 5.86 5.318 2.576-.192 2.833-.384 3.027-1.986s.064-1.73-1.932-1.602c-2.061.192-2.125.064-2.125-2.05s.129-2.243 1.996-2.05c1.546.128 2.125-.128 2.383-1.089.129-.641 0-1.538-.386-1.922-.902-.897-4.25-.897-5.925.064zM61.049 11.71c-.193.513-.258 3.011-.129 5.638l.193 4.741h4.186c3.864 0 4.186-.128 4.379-1.474.193-1.217-.064-1.41-2.06-1.41-1.288 0-2.319-.32-2.319-.641 0-.384.902-.641 1.932-.641 1.481 0 1.932-.256 1.932-1.281s-.451-1.281-1.932-1.281c-1.03 0-1.932-.32-1.932-.641 0-.384.837-.641 1.868-.641 1.804 0 3.027-1.41 2.254-2.627-.58-.961-7.985-.705-8.372.256zM73.993 11.518c-2.125.833-2.962 2.307-3.027 4.998-.065 4.613 1.803 6.215 6.633 5.767 1.868-.128 2.189-.448 2.189-1.794 0-1.41-.257-1.602-2.061-1.41-1.546.128-2.125-.064-2.447-1.089-.58-1.986.644-3.588 2.705-3.588 1.224 0 1.868-.384 1.996-1.217.451-2.05-2.833-3.011-5.989-1.666zM81.914 11.262c-.323.256-.515 2.883-.515 5.831v5.382l2.06-.192c1.61-.128 2.19-.577 2.512-1.794l.386-1.602.515 1.73c.387 1.474.837 1.794 2.512 1.794 2.769 0 3.091-.448 1.932-2.691-.708-1.41-.837-2.114-.322-2.627.837-.833.902-3.652.129-4.87-.644-1.025-8.371-1.858-9.208-.961zm5.28 3.46c0 .705-.257 1.281-.644 1.281-.322 0-.644-.577-.644-1.281s.322-1.281.644-1.281c.387 0 .644.577.644 1.281zM93.441 11.326c-.258.192-.451 2.819-.451 5.767v5.318h4.186c4.057 0 4.186-.064 4.186-1.602 0-1.346-.322-1.602-1.932-1.602-1.03 0-1.932-.32-1.932-.641 0-.384.708-.641 1.61-.641 1.159 0 1.61-.32 1.61-1.281s-.451-1.281-1.61-1.281c-.902 0-1.61-.32-1.61-.641 0-.384.902-.641 1.932-.641 1.61 0 1.932-.256 1.932-1.602 0-1.538-.193-1.602-3.735-1.602-2.061 0-3.992.192-4.186.448zM106.45 11.262c-1.16.32-4.122 8.842-3.542 10.252.515 1.281 3.413 1.153 4.186-.192.579-1.089.644-1.089 1.803 0 1.482 1.281 4.701 1.474 4.701.256 0-.384-.644-2.947-1.482-5.574-1.288-4.229-1.674-4.806-3.027-4.934-.902 0-2.061.064-2.64.192zm1.803 5.831c-.193.641-.322.256-.322-.769 0-1.089.129-1.538.322-1.153.129.448.129 1.346 0 1.922zM115.723 11.326c-.58.192-.837 1.986-.837 5.703v5.382h1.868c1.61 0 1.932-.32 2.189-1.794.257-1.666.257-1.666.772-.32.258.833.902 1.474 1.352 1.474.515 0 1.224-.641 1.546-1.474.515-1.346.58-1.346.58.384.065 1.602.257 1.794 2.061 1.602l1.996-.192.065-5.318c.129-4.934.064-5.318-1.288-5.638-2.061-.513-3.799.705-4.379 3.076l-.451 2.114-.708-2.243c-.902-3.011-2.254-3.78-4.765-2.755zM9.016 11.967c-.193.256-.386 1.089-.386 1.922 0 1.474.064 1.474 7.406 1.474s7.406 0 7.406-1.474c0-2.178-.58-2.435-2.64-1.41-2.318 1.217-7.213 1.217-9.531 0-1.03-.513-1.996-.705-2.254-.513zM7.148 17.669c-1.03 1.089.708 1.538 5.731 1.538h5.409v2.243c0 1.217.322 2.243.644 2.243.386 0 .644-.961.644-2.178 0-2.114.129-2.243 2.576-2.435 1.417-.128 2.576-.513 2.576-.833 0-.705-16.872-1.281-17.581-.577z"/><path fill="#d41443" style="fill:var(--color1, #d41443)" d="M8.629 23.308c0 3.524 1.224 4.229 7.406 4.229s7.406-.705 7.406-4.229c0-1.538-.322-2.178-.966-2.178-.58 0-.966.577-.966 1.538 0 3.588-4.894 3.908-5.603.384-.322-1.858-.515-1.922-3.8-1.922H8.629v2.178zM12.622 30.548c.386 2.05 6.955 1.858 6.955-.128 0-.705-.837-.961-3.606-.961-3.027 0-3.542.192-3.349 1.089z"/></symbol>
        <symbol id="telegram" viewBox="0 0 32 32"><path d="M32 16c0 8.837-7.163 16-16 16S0 24.837 0 16 7.163 0 16 0s16 7.163 16 16z"/><path fill="#fff" style="fill:#fff" d="m12.867 18.375-.318 4.169c.454 0 .651-.182.887-.401l2.13-1.9 4.415 3.017c.81.421 1.38.199 1.598-.695l2.898-12.673c.257-1.117-.433-1.554-1.222-1.28L6.223 14.698c-1.162.421-1.145 1.026-.198 1.3l4.354 1.264 10.115-5.907c.476-.294.909-.131.553.163l-8.182 6.857z"/></symbol>
        <symbol id="burger" viewBox="0 0 46 32"><path d="M45.714 3.429H0V1.143h45.714v2.286zM45.714 17.143H0v-2.286h45.714v2.286zM45.714 30.857H0v-2.286h45.714v2.286z"/></symbol><symbol id="close" viewBox="0 0 32 32"><path d="m28.761 30.693-26.963-28 1.441-1.387 26.963 28-1.441 1.387z"/><path d="m30.694 3.239-28 26.963-1.387-1.441 28-26.963 1.387 1.441z"/></symbol>
        <symbol id="arrow-link" viewBox="0 0 24 24"><path d="M10.586 6.586c-0.781 0.779-0.781 2.047 0 2.828l1.586 1.586h-7.244c-1.104 0-2 0.895-2 2s0.896 2 2 2h7.244l-1.586 1.586c-0.781 0.779-0.781 2.047 0 2.828 0.391 0.391 0.902 0.586 1.414 0.586s1.023-0.195 1.414-0.586l6.414-6.414-6.414-6.414c-0.781-0.781-2.047-0.781-2.828 0z"></path></symbol>
        <symbol id="icecream" viewBox="0 0 32 32">
            <path d="M15.266 0.58c-0.239 0.249-0.239 0.28-0.104 0.976 0.156 0.81 0.093 1.298-0.26 1.973-0.384 0.758-0.613 0.914-1.485 0.966-0.976 0.073-1.599 0.426-2.056 1.204-0.478 0.789-0.54 1.599-0.208 2.409 0.052 0.114-0.031 0.197-0.28 0.291-0.53 0.187-1.194 0.81-1.506 1.412-0.374 0.706-0.395 1.963-0.052 2.606l0.218 0.426-0.467 0.249c-0.603 0.322-1.122 0.934-1.34 1.578-0.218 0.654-0.156 1.745 0.114 2.316 0.291 0.602 1.018 1.267 1.63 1.475 0.332 0.124 0.561 0.28 0.654 0.446 0.073 0.145 1.267 2.97 2.648 6.283s2.617 6.127 2.731 6.251c0.114 0.135 0.332 0.239 0.488 0.239s0.374-0.104 0.488-0.239c0.114-0.125 1.35-2.939 2.731-6.251s2.575-6.148 2.658-6.293c0.083-0.166 0.28-0.312 0.54-0.384 1.111-0.332 1.994-1.558 1.994-2.772 0-1.184-0.54-2.149-1.485-2.648l-0.457-0.249 0.218-0.467c0.332-0.727 0.301-1.869-0.062-2.565s-1.028-1.267-1.817-1.547c-0.010-0.011 0.052-0.239 0.135-0.519 0.395-1.298-0.446-2.825-1.745-3.167-0.364-0.104-0.395-0.145-0.395-0.478 0-0.457-0.343-1.495-0.665-1.994-0.54-0.852-1.776-1.786-2.357-1.786-0.145 0-0.373 0.115-0.508 0.26zM17.188 3.591c0.125 0.384 0.156 0.685 0.114 1.153-0.052 0.54-0.031 0.675 0.145 0.893 0.166 0.218 0.312 0.27 0.841 0.312 0.561 0.042 0.685 0.083 0.935 0.374 0.613 0.685 0.291 1.589-0.633 1.796-0.602 0.135-0.831 0.353-0.831 0.779 0 0.239 0.073 0.395 0.27 0.55 0.239 0.187 0.426 0.218 1.329 0.218 1.267 0 1.62 0.166 1.942 0.893 0.228 0.509 0.197 0.903-0.093 1.412-0.197 0.332-0.831 0.706-1.225 0.706-0.644 0-1.007 0.8-0.561 1.246 0.177 0.177 0.343 0.208 1.225 0.208 0.852 0 1.090 0.042 1.475 0.228 1.069 0.55 1.101 1.848 0.073 2.617-0.291 0.218-0.374 0.218-6.179 0.218-5.524 0-5.908-0.010-6.199-0.187-0.467-0.291-0.706-0.675-0.748-1.204-0.062-0.654 0.218-1.132 0.8-1.444 0.446-0.218 0.54-0.228 3.801-0.228h3.354l0.208-0.27c0.28-0.364 0.27-0.613-0.042-0.924l-0.249-0.26h-2.606c-3.032 0-3.229-0.052-3.624-0.862-0.27-0.55-0.27-0.727-0.011-1.288 0.312-0.696 0.685-0.862 1.932-0.862 0.903 0 1.090-0.031 1.329-0.218 0.197-0.156 0.27-0.312 0.27-0.55 0-0.426-0.228-0.644-0.831-0.779-0.623-0.135-0.935-0.499-0.935-1.090 0-0.353 0.062-0.499 0.312-0.737 0.28-0.27 0.405-0.301 1.194-0.353 0.862-0.062 0.883-0.062 1.36-0.53 0.716-0.706 1.121-1.423 1.34-2.43 0.062-0.28 0.073-0.291 0.197-0.104 0.083 0.103 0.218 0.425 0.322 0.716zM20.251 18.793c0 0.052-0.073 0.26-0.156 0.467l-0.156 0.374h-5.908l-0.208 0.27c-0.27 0.353-0.27 0.561 0 0.903l0.208 0.28 2.627 0.021 2.637 0.031-1.62 3.863c-0.893 2.129-1.651 3.873-1.682 3.873-0.062 0-4.258-9.958-4.258-10.104 0-0.042 1.921-0.073 4.258-0.073 2.378 0 4.258 0.042 4.258 0.093z"></path>
        </symbol>
        <symbol id="milkshake" viewBox="0 0 32 32">
            <path d="M20.949 0.418c-0.196 0.104-0.172 0.006-0.692 2.383-0.22 1.011-0.423 1.886-0.447 1.942-0.037 0.092-0.086 0.086-0.472-0.080-2.456-1.060-5.378-0.858-7.717 0.527-2.107 1.25-3.577 3.35-3.902 5.568l-0.074 0.527h-0.594c-0.551 0-0.612 0.012-0.784 0.159l-0.19 0.159v1.25c0 1.25 0 1.256 0.153 1.403 0.141 0.141 0.19 0.153 0.796 0.153 0.46 0 0.655 0.025 0.674 0.074 0.037 0.092 2.542 16.623 2.542 16.752 0 0.049 0.080 0.172 0.178 0.269l0.178 0.178h11.349l0.147-0.153c0.086-0.080 0.153-0.172 0.159-0.196 0-0.024 0.46-3.84 1.023-8.471l1.023-8.422 0.698-0.031c0.968-0.043 0.925 0.031 0.925-1.562v-1.244l-0.19-0.159c-0.172-0.147-0.233-0.159-0.79-0.159h-0.6l-0.037-0.355c-0.123-1.035-0.582-2.223-1.237-3.216-0.453-0.674-1.354-1.623-1.942-2.034-0.19-0.135-0.349-0.282-0.349-0.324 0-0.037 0.22-1.066 0.49-2.278s0.49-2.248 0.49-2.303c0-0.147-0.343-0.453-0.502-0.453-0.078 0.006-0.213 0.043-0.305 0.098zM17.231 5.134c1.58 0.269 2.977 0.986 4.098 2.107 1.035 1.029 1.752 2.407 1.929 3.718l0.043 0.324h-12.501l0.031-0.202c0.074-0.398 0.331-1.041 0.582-1.47 0.343-0.576 1.121-1.341 1.746-1.709 0.772-0.46 1.886-0.784 2.707-0.784 0.263 0 0.355-0.031 0.472-0.153 0.233-0.227 0.227-0.539-0.006-0.753-0.19-0.165-0.661-0.184-1.439-0.043-2.303 0.404-4.269 2.040-4.894 4.073-0.098 0.318-0.196 0.686-0.214 0.809l-0.037 0.233h-1.047l0.043-0.324c0.337-2.468 2.383-4.765 4.986-5.58 1.078-0.343 2.401-0.435 3.504-0.245zM24.881 12.846v0.521h-17.763v-1.041h17.763v0.521zM23.228 14.536c0 0.123-1.899 15.821-1.929 15.962l-0.031 0.141h-10.039l-0.037-0.196c-0.018-0.11-0.557-3.663-1.194-7.889s-1.176-7.778-1.195-7.889l-0.037-0.196h7.234c5.359 0 7.228 0.019 7.228 0.068z"></path>
        </symbol>
        <symbol id="icecoffee" viewBox="0 0 32 32">
            <path d="M23.423 7.257v-2.26l-0.052-0.105c-0.112-0.224-1.237-2.142-6.875-2.248v-1.653h8.741v-0.991h-8.907c-0.536 0-0.826 0.425-0.826 0.826v1.818c-5.638 0.107-6.763 2.024-6.875 2.248l-0.052 0.105v2.26h-1.979v3.63h1.679l1.32 21.112h12.807l1.319-21.112h1.679v-3.63h-1.979zM16.496 3.635c4.361 0.087 5.666 1.308 5.936 1.634v1.988h-5.936v-3.622zM9.568 5.266c0.105-0.127 0.383-0.408 0.963-0.698 0.806-0.403 2.314-0.879 4.973-0.932v3.622h-5.936v-1.991zM7.589 9.896v-1.648h7.915v1.648h-7.915zM9.27 10.888h6.234v5.46c-0.244-0.11-0.534-0.184-0.896-0.184-0.892 0-1.356 0.442-1.728 0.798-0.317 0.303-0.546 0.521-1.036 0.521-0.495 0-0.725-0.219-1.044-0.521-0.29-0.275-0.637-0.604-1.199-0.735l-0.331-5.34zM21.472 31.009l-10.944-0-0.859-13.697c0.155 0.092 0.291 0.22 0.448 0.369 0.373 0.354 0.836 0.794 1.726 0.794 0.887 0 1.349-0.441 1.721-0.796 0.319-0.304 0.549-0.524 1.044-0.524s0.725 0.219 1.044 0.523c0.373 0.355 0.836 0.797 1.727 0.797 0.895 0 1.36-0.442 1.734-0.797 0.319-0.303 0.55-0.522 1.044-0.522 0.493 0 0.724 0.219 1.043 0.523 0.264 0.251 0.579 0.549 1.061 0.699l-0.788 12.632zM22.326 17.328c-0.153-0.092-0.287-0.219-0.444-0.368-0.373-0.355-0.837-0.796-1.726-0.796s-1.354 0.441-1.727 0.795c-0.321 0.305-0.552 0.525-1.051 0.525-0.408 0-0.637-0.15-0.883-0.373v-6.223h6.234l-0.403 6.44zM24.411 9.896h-7.915v-1.648h7.915v1.648z"></path>
            <path d="M15.941 19.652l-3.822 1.406 1.399 3.822 3.829-1.399-1.406-3.829zM13.39 21.647l1.962-0.722 0.722 1.966-1.966 0.718-0.718-1.962zM16.388 24.68l-1.652 3.575 3.569 1.652 1.652-3.569-3.569-1.659zM17.821 28.591l-1.77-0.82 0.82-1.774 1.77 0.823-0.82 1.771zM18.309 19.463h1.32v0.991h-1.32zM19.628 21.442h1.32v0.991h-1.32zM11.052 26.061h1.319v0.991h-1.319zM12.372 28.040h1.319v0.991h-1.319z"></path>
        </symbol>
    </defs>
</svg>